G04 Layer: BottomSilkLayer*
G04 EasyEDA v6.4.19.5, 2021-06-12T21:58:25+03:00*
G04 1ff6661c721349f79f7509290fd69735,53ba2d9ccfca4158b71df57a2e042f82,10*
G04 Gerber Generator version 0.2*
G04 Scale: 100 percent, Rotated: No, Reflected: No *
G04 Dimensions in millimeters *
G04 leading zeros omitted , absolute positions ,4 integer and 5 decimal *
%FSLAX45Y45*%
%MOMM*%

%ADD10C,0.2540*%
%ADD27C,0.1524*%

%LPD*%
D27*
X1370076Y-6125463D02*
G01*
X1370076Y-6181089D01*
X1373378Y-6191250D01*
X1376934Y-6194805D01*
X1383792Y-6198362D01*
X1390650Y-6198362D01*
X1397762Y-6194805D01*
X1401063Y-6191250D01*
X1404620Y-6181089D01*
X1404620Y-6173978D01*
X1347215Y-6125463D02*
G01*
X1347215Y-6198362D01*
X1347215Y-6125463D02*
G01*
X1315973Y-6125463D01*
X1305560Y-6129020D01*
X1302004Y-6132576D01*
X1298702Y-6139434D01*
X1298702Y-6149847D01*
X1302004Y-6156705D01*
X1305560Y-6160262D01*
X1315973Y-6163563D01*
X1347215Y-6163563D01*
X1227328Y-6125463D02*
G01*
X1261871Y-6198362D01*
X1275842Y-6125463D02*
G01*
X1227328Y-6125463D01*
X5715000Y-6770115D02*
G01*
X5715000Y-6692137D01*
X5720079Y-6676644D01*
X5730493Y-6666229D01*
X5746241Y-6661150D01*
X5756656Y-6661150D01*
X5772150Y-6666229D01*
X5782563Y-6676644D01*
X5787643Y-6692137D01*
X5787643Y-6770115D01*
X5821934Y-6749287D02*
G01*
X5832347Y-6754621D01*
X5848095Y-6770115D01*
X5848095Y-6661150D01*
D10*
X1143000Y-6032500D02*
G01*
X1206500Y-6096000D01*
X1143000Y-6159500D01*
X1143000Y-6286500D01*
X1206500Y-6350000D01*
X1143000Y-6413500D01*
X1143000Y-6540500D01*
X1206500Y-6604000D01*
X1333500Y-6604000D01*
X1397000Y-6540500D01*
X1397000Y-6413500D01*
X1333500Y-6350000D01*
X1397000Y-6286500D01*
X1397000Y-6159500D01*
X1333500Y-6096000D01*
X1397000Y-6032500D01*
X1397000Y-5905500D01*
X1333500Y-5842000D01*
X1397000Y-5778500D01*
X1397000Y-5651500D01*
X1333500Y-5588000D01*
X1397000Y-5524500D01*
X1397000Y-5397500D01*
X1333500Y-5334000D01*
X1397000Y-5270500D01*
X1397000Y-5143500D01*
X1333500Y-5080000D01*
X1397000Y-5016500D01*
X1397000Y-4889500D01*
X1333500Y-4826000D01*
X1397000Y-4762500D01*
X1397000Y-4635500D01*
X1333500Y-4572000D01*
X1397000Y-4508500D01*
X1397000Y-4381500D01*
X1333500Y-4318000D01*
X1397000Y-4254500D01*
X1397000Y-4127500D01*
X1333500Y-4064000D01*
X1397000Y-4000500D01*
X1397000Y-3873500D01*
X1333500Y-3810000D01*
X1397000Y-3746500D01*
X1397000Y-3619500D01*
X1333500Y-3556000D01*
X1206500Y-3556000D01*
X1143000Y-3619500D01*
X1143000Y-3746500D01*
X1206500Y-3810000D01*
X1143000Y-3873500D01*
X1143000Y-4000500D01*
X1206500Y-4064000D01*
X1143000Y-4127500D01*
X1143000Y-4254500D01*
X1206500Y-4318000D01*
X1143000Y-4381500D01*
X1143000Y-4508500D01*
X1206500Y-4572000D01*
X1143000Y-4635500D01*
X1143000Y-4762500D01*
X1206500Y-4826000D01*
X1143000Y-4889500D01*
X1143000Y-5016500D01*
X1206500Y-5080000D01*
X1143000Y-5143500D01*
X1143000Y-5270500D01*
X1206500Y-5334000D01*
X1143000Y-5397500D01*
X1143000Y-5524500D01*
X1206500Y-5588000D01*
X1143000Y-5651500D01*
X1143000Y-5778500D01*
X1206500Y-5842000D01*
X1143000Y-5905500D01*
X1143000Y-6032500D01*
X2921000Y-4127500D02*
G01*
X2857500Y-4064000D01*
X2921000Y-4000500D01*
X2921000Y-3873500D01*
X2857500Y-3810000D01*
X2921000Y-3746500D01*
X2921000Y-3619500D01*
X2857500Y-3556000D01*
X2730500Y-3556000D01*
X2667000Y-3619500D01*
X2667000Y-3746500D01*
X2730500Y-3810000D01*
X2667000Y-3873500D01*
X2667000Y-4000500D01*
X2730500Y-4064000D01*
X2667000Y-4127500D01*
X2667000Y-4254500D01*
X2730500Y-4318000D01*
X2667000Y-4381500D01*
X2667000Y-4508500D01*
X2730500Y-4572000D01*
X2667000Y-4635500D01*
X2667000Y-4762500D01*
X2730500Y-4826000D01*
X2667000Y-4889500D01*
X2667000Y-5016500D01*
X2730500Y-5080000D01*
X2667000Y-5143500D01*
X2667000Y-5270500D01*
X2730500Y-5334000D01*
X2667000Y-5397500D01*
X2667000Y-5524500D01*
X2730500Y-5588000D01*
X2667000Y-5651500D01*
X2667000Y-5778500D01*
X2730500Y-5842000D01*
X2667000Y-5905500D01*
X2667000Y-6032500D01*
X2730500Y-6096000D01*
X2667000Y-6159500D01*
X2667000Y-6286500D01*
X2730500Y-6350000D01*
X2667000Y-6413500D01*
X2667000Y-6540500D01*
X2730500Y-6604000D01*
X2857500Y-6604000D01*
X2921000Y-6540500D01*
X2921000Y-6413500D01*
X2857500Y-6350000D01*
X2921000Y-6286500D01*
X2921000Y-6159500D01*
X2857500Y-6096000D01*
X2921000Y-6032500D01*
X2921000Y-5905500D01*
X2857500Y-5842000D01*
X2921000Y-5778500D01*
X2921000Y-5651500D01*
X2857500Y-5588000D01*
X2921000Y-5524500D01*
X2921000Y-5397500D01*
X2857500Y-5334000D01*
X2921000Y-5270500D01*
X2921000Y-5143500D01*
X2857500Y-5080000D01*
X2921000Y-5016500D01*
X2921000Y-4889500D01*
X2857500Y-4826000D01*
X2921000Y-4762500D01*
X2921000Y-4635500D01*
X2857500Y-4572000D01*
X2921000Y-4508500D01*
X2921000Y-4381500D01*
X2857500Y-4318000D01*
X2921000Y-4254500D01*
X2921000Y-4127500D01*
X3556000Y-6604000D02*
G01*
X7874000Y-6604000D01*
X7874000Y-3556000D01*
X3556000Y-3556000D01*
X3556000Y-6604000D01*
M02*
