M48
METRIC,LZ,000.000
;FILE_FORMAT=3:3
;TYPE=PLATED
;Layer: Drill PTH
;EasyEDA v6.4.19.5, 2021-06-12T21:58:25+03:00
;1ff6661c721349f79f7509290fd69735,53ba2d9ccfca4158b71df57a2e042f82,10
;Gerber Generator version 0.2
;Holesize 1 = 0.800 mm
T01C0.800
;Holesize 2 = 0.901 mm
T02C0.901
;Holesize 3 = 0.915 mm
T03C0.915
;Holesize 4 = 1.000 mm
T04C1.000
;Holesize 5 = 1.016 mm
T05C1.016
;Holesize 6 = 1.200 mm
T06C1.200
;Holesize 7 = 1.401 mm
T07C1.401
%
G05
G90
T01
X034020Y-025400
X032020Y-025400
X086360Y-040640
X086360Y-043139
X086360Y-045641
X086360Y-048141
X086360Y-050640
X086360Y-053139
T02
X076200Y-005080G85X076200Y-005080
X076200Y-007620G85X076200Y-007620
X048260Y-005080G85X048260Y-005080
X048260Y-007620G85X048260Y-007620
X033020Y-015240G85X033020Y-015240
X035560Y-015240G85X035560Y-015240
T03
X038100Y-058420
X038100Y-055880
X038100Y-053340
X038100Y-050800
X038100Y-048260
X038100Y-045720
X038100Y-043180
X073660Y-053340
X073660Y-048260
T04
X067850Y-007620
X059150Y-007620
X078740Y-029750
X078740Y-021050
X050890Y-020130
X048390Y-020130
X045890Y-020192
X043390Y-020159
X050890Y-030290
X048390Y-030290
X045890Y-030352
X043390Y-030319
T05
X012700Y-064770
X012700Y-062230
X012700Y-059690
X012700Y-057150
X012700Y-054610
X012700Y-052070
X012700Y-049530
X012700Y-046990
X012700Y-044450
X012700Y-041910
X012700Y-039370
X012700Y-036830
X027940Y-036830
X027940Y-039370
X027940Y-041910
X027940Y-044450
X027940Y-046990
X027940Y-049530
X027940Y-052070
X027940Y-054610
X027940Y-057150
X027940Y-059690
X027940Y-062230
X027940Y-064770
T06
X061090Y-030898G85X061090Y-030903
X065390Y-030898G85X065390Y-030903
T07
X065390Y-015898G85X065390Y-015903
X062240Y-021898G85X062240Y-021903
X066040Y-025397G85X066040Y-025403
M30
